<?xml version="1.0" encoding="UTF-8"?>
<svg width="256px" height="256px" viewBox="0 0 256 256" version="1.1" xmlns="http://www.w3.org/2000/svg" xmlns:xlink="http://www.w3.org/1999/xlink">
    <title>矩形备份-281</title>
    <g id="页面-1" stroke="none" stroke-width="1" fill="none" fill-rule="evenodd">
        <g id="logo">
            <rect id="矩形备份-281" fill="#FFFFFF" fill-rule="nonzero" x="0" y="0" width="256" height="256"></rect>
            <path d="M65.1211208,200.486492 L89.0371522,64.6131823 C89.7103234,60.7887185 93.0327746,58 96.9160313,58 L159.785822,58 C182.897243,58 201.632751,76.7355081 201.632751,99.8469286 C201.632751,106.686965 199.956074,113.422729 196.749496,119.464579 L188.952393,134.155919 L188.952393,134.155919 L190.289165,137.166531 C201.880606,163.272212 190.11449,193.831766 164.00881,205.423207 C157.400726,208.357328 150.250853,209.873309 143.02065,209.873309 L73,209.873309 C68.581722,209.873309 65,206.291587 65,201.873309 C65,201.408396 65.040527,200.944367 65.1211208,200.486492 Z" id="path-1" fill="#DFE9FF"></path>
            <path d="M60.1211208,194.486492 L84.0371522,58.6131823 C84.7103234,54.7887185 88.0327746,52 91.9160313,52 L154.785822,52 C177.897243,52 196.632751,70.7355081 196.632751,93.8469286 C196.632751,100.686965 194.956074,107.422729 191.749496,113.464579 L183.952393,128.155919 L183.952393,128.155919 L185.289165,131.166531 C196.880606,157.272212 185.11449,187.831766 159.00881,199.423207 C152.400726,202.357328 145.250853,203.873309 138.02065,203.873309 L68,203.873309 C63.581722,203.873309 60,200.291587 60,195.873309 C60,195.408396 60.040527,194.944367 60.1211208,194.486492 Z" id="path-1" fill="#1B61F3"></path>
            <path d="M140.704583,103.643743 C141.89659,96.6757205 148.511601,91.9933346 155.479624,93.1853417 C162.130918,94.3231667 166.699639,100.4022 166.064497,107.012862 L165.938025,107.960383 L156.223244,158.88714 L117.870719,138.371911 L115.396898,152.036588 C114.193137,158.676266 108.069074,163.184447 101.465038,162.483748 L100.518819,162.347882 C93.8791414,161.144121 89.3709601,155.020057 90.071659,148.416022 L90.2075257,147.469803 L99.9547402,99.2387222 L137.974567,119.573363 L140.704583,103.643743 Z" id="路径-37备份-26" fill="#FFFFFF" fill-rule="nonzero" transform="translate(128.061683, 127.777703) rotate(-1.000000) translate(-128.061683, -127.777703) "></path>
        </g>
    </g>
</svg>