<?xml version="1.0" standalone="no"?><!DOCTYPE svg PUBLIC "-//W3C//DTD SVG 1.1//EN" "http://www.w3.org/Graphics/SVG/1.1/DTD/svg11.dtd"><svg t="1740477471446" class="icon" viewBox="0 0 1024 1024" version="1.1" xmlns="http://www.w3.org/2000/svg" p-id="1787" xmlns:xlink="http://www.w3.org/1999/xlink" width="128" height="128"><path d="M915 290.8H109c-22.1 0-40 17.9-40 40v362.4c0 22.1 17.9 40 40 40h806c22.1 0 40-17.9 40-40V330.8c0-22.1-18-40-40-40z m0 402.4H109V330.8h806v362.4z" fill="#565656" p-id="1788"></path><path d="M232 373h-52.5c-1.7 0-3 1.3-3 3v52.5c0 1.7 1.3 3 3 3H232c1.7 0 3-1.3 3-3V376c0-1.7-1.3-3-3-3zM357.5 428.5V376c0-1.7-1.3-3-3-3H302c-1.7 0-3 1.3-3 3v52.5c0 1.7 1.3 3 3 3h52.5c1.7 0 3-1.3 3-3zM424.5 431.5H477c1.7 0 3-1.3 3-3V376c0-1.7-1.3-3-3-3h-52.5c-1.7 0-3 1.3-3 3v52.5c0 1.7 1.4 3 3 3zM547 431.5h52.5c1.7 0 3-1.3 3-3V376c0-1.7-1.3-3-3-3H547c-1.7 0-3 1.3-3 3v52.5c0 1.7 1.3 3 3 3zM722 373h-52.5c-1.7 0-3 1.3-3 3v52.5c0 1.7 1.3 3 3 3H722c1.7 0 3-1.3 3-3V376c0-1.7-1.4-3-3-3zM844.4 373H792c-1.7 0-3 1.3-3 3v52.5c0 1.7 1.3 3 3 3h52.5c1.7 0 3-1.3 3-3V376c-0.1-1.7-1.4-3-3.1-3zM292.6 482.8h-52.5c-1.7 0-3 1.3-3 3v52.5c0 1.7 1.3 3 3 3h52.5c1.7 0 3-1.3 3-3v-52.5c0-1.7-1.3-3-3-3zM362.9 541.2h52.5c1.7 0 3-1.3 3-3v-52.5c0-1.7-1.3-3-3-3h-52.5c-1.7 0-3 1.3-3 3v52.5c0 1.7 1.4 3 3 3zM485.8 541.2h52.5c1.7 0 3-1.3 3-3v-52.5c0-1.7-1.3-3-3-3h-52.5c-1.7 0-3 1.3-3 3v52.5c0 1.7 1.3 3 3 3zM608.6 541.2h52.5c1.7 0 3-1.3 3-3v-52.5c0-1.7-1.3-3-3-3h-52.5c-1.7 0-3 1.3-3 3v52.5c0 1.7 1.3 3 3 3zM783.9 482.8h-52.5c-1.7 0-3 1.3-3 3v52.5c0 1.7 1.3 3 3 3h52.5c1.7 0 3-1.3 3-3v-52.5c0-1.7-1.4-3-3-3zM709.7 592.5H314.3c-1.7 0-3 1.3-3 3V648c0 1.7 1.3 3 3 3h395.3c1.7 0 3-1.3 3-3v-52.5c0.1-1.7-1.3-3-2.9-3z" fill="#565656" p-id="1789"></path></svg>